<mxfile host="app.diagrams.net" modified="2024-04-28T13:40:39.392Z" agent="Mozilla/5.0 (Windows NT 10.0; Win64; x64) AppleWebKit/537.36 (KHTML, like Gecko) Chrome/124.0.0.0 Safari/537.36" etag="I5Auayv6ZfuFZORHqitl" version="24.2.1" type="device">
  <diagram name="Página-1" id="C-PClh7iX6JLdaMJABn4">
    <mxGraphModel dx="1674" dy="746" grid="1" gridSize="10" guides="1" tooltips="1" connect="1" arrows="1" fold="1" page="1" pageScale="1" pageWidth="827" pageHeight="1169" math="0" shadow="0">
      <root>
        <mxCell id="0" />
        <mxCell id="1" parent="0" />
        <mxCell id="1dmnMxwKKWMNMVrGBrF0-2" value="Menu Principal:&lt;br&gt;&lt;br&gt;&lt;div&gt;1 - Iniciar Sessão&lt;/div&gt;" style="rounded=1;whiteSpace=wrap;html=1;align=left;spacingLeft=12;" parent="1" vertex="1">
          <mxGeometry x="320" y="120" width="200" height="160" as="geometry" />
        </mxCell>
        <mxCell id="olk4RV9NaSBeg0otqcRm-2" value="Menu Mecânico:&lt;br&gt;&lt;br&gt;&lt;div&gt;1 - Adicionar Material&lt;br&gt;&lt;/div&gt;&lt;div&gt;2 - Remover Material&lt;br&gt;3 - Ver inventário&lt;br&gt;&lt;/div&gt;0- Terminar Sessão" style="rounded=1;whiteSpace=wrap;html=1;align=left;spacingLeft=12;" parent="1" vertex="1">
          <mxGeometry x="80" y="360" width="200" height="160" as="geometry" />
        </mxCell>
        <mxCell id="olk4RV9NaSBeg0otqcRm-3" value="" style="edgeStyle=orthogonalEdgeStyle;rounded=0;orthogonalLoop=1;jettySize=auto;html=1;" parent="1" source="1dmnMxwKKWMNMVrGBrF0-2" target="olk4RV9NaSBeg0otqcRm-2" edge="1">
          <mxGeometry relative="1" as="geometry">
            <mxPoint x="140" y="100" as="sourcePoint" />
            <Array as="points">
              <mxPoint x="120" y="160" />
            </Array>
            <mxPoint x="180" y="240" as="targetPoint" />
          </mxGeometry>
        </mxCell>
        <mxCell id="olk4RV9NaSBeg0otqcRm-4" value="1" style="edgeLabel;html=1;align=center;verticalAlign=middle;resizable=0;points=[];" parent="olk4RV9NaSBeg0otqcRm-3" vertex="1" connectable="0">
          <mxGeometry x="-0.6117" y="-1" relative="1" as="geometry">
            <mxPoint x="-20" y="11" as="offset" />
          </mxGeometry>
        </mxCell>
        <mxCell id="olk4RV9NaSBeg0otqcRm-17" value="0" style="edgeStyle=orthogonalEdgeStyle;rounded=0;orthogonalLoop=1;jettySize=auto;html=1;" parent="1" edge="1">
          <mxGeometry y="-10" relative="1" as="geometry">
            <mxPoint x="240" y="360" as="sourcePoint" />
            <Array as="points">
              <mxPoint x="250" y="360" />
              <mxPoint x="250" y="240" />
            </Array>
            <mxPoint x="320" y="240" as="targetPoint" />
            <mxPoint as="offset" />
          </mxGeometry>
        </mxCell>
      </root>
    </mxGraphModel>
  </diagram>
</mxfile>
